/* XPM */
static char *_6x16_tiles_0__1__resized[] = {
/* columns rows colors chars-per-pixel */
"16 16 19 1 ",
"  c #747C8E",
". c #2A3244",
"X c #454D5F",
"o c #0C1426",
"O c #1E2638",
"+ c #1F2739",
"@ c #2B3345",
"# c #121A2C",
"$ c #747C8F",
"% c #434B5D",
"& c #444C5E",
"* c #757D8F",
"= c #737B8D",
"- c #1D2537",
"; c #727A8C",
": c #293143",
"> c #424A5C",
", c #0B1325",
"< c white",
/* pixels */
" .Xo  XOo  +.@#$",
"%XX# @@+oX..&XoX",
" XOo+X+O#+& &+#+",
"oo#o##o#####ooo#",
" @+X#  Xo *@+X.#",
"&X@X# @@o &+&@&o",
"+.X+oXX #X+% =&#",
"##ooo#ooo#oo#ooo",
"XO.o  @OO# *+# &",
".XX#X@&&.#&.+o%O",
" X+# &+& #O&X#O%",
"oo#oo#oo#oooo#o#",
"O# &@O#=X-%.# ;@",
"@o&+@&o=.::&o%@&",
"&o@>O&,.+*%+#+&@",
"o##oo#o#oooo#oo#"
};
