/* XPM */
static char *Brick_03_Layer_1_Center_256x2561706893786[] = {
/* columns rows colors chars-per-pixel */
"128 128 73 1 ",
"  c #161209",
". c #17140F",
"X c #19160D",
"o c #18170F",
"O c #1E170C",
"+ c #1D180F",
"@ c #1D1912",
"# c #1F1D10",
"$ c #1C1B16",
"% c #1E1B16",
"& c #1C1E17",
"* c #1F1E17",
"= c #241C11",
"- c #241E11",
"; c #211C16",
": c #251F16",
"> c #262415",
", c #2C2515",
"< c #232418",
"1 c #23241B",
"2 c #262418",
"3 c #23231D",
"4 c #25231D",
"5 c #26251D",
"6 c #2C2318",
"7 c #2C231A",
"8 c #2C2618",
"9 c #2C261D",
"0 c #2D2C1B",
"q c #2A2C1F",
"w c #2D2C1F",
"e c #302C1B",
"r c #332A1F",
"t c #332D1F",
"y c #2A2A24",
"u c #2D2A24",
"i c #2B2C24",
"p c #2D2D24",
"a c #312B24",
"s c #332D24",
"d c #373120",
"f c #373023",
"g c #343323",
"h c #313326",
"j c #343326",
"k c #3B3126",
"l c #3B3725",
"z c #3A3426",
"x c #30312C",
"c c #32332C",
"v c #34352C",
"b c #383228",
"n c #3B362C",
"m c #3C372D",
"M c #3D3A2A",
"N c #383A2D",
"B c #3B3A2D",
"V c #3B382F",
"C c #393B33",
"Z c #3B3C33",
"A c #3F3E31",
"S c #41372B",
"D c #403B2B",
"F c #413B2D",
"G c #423E31",
"H c #413F34",
"J c #404134",
"K c #424135",
"L c #434537",
"P c #42443A",
"I c #454438",
"U c #47493C",
"Y c #464A3E",
/* pixels */
"wvspp5snjppsw8ss9ttwsppnB9wvvKUjBJvppjgnhhZpvvsnjsr9jjjsZsjFjnpsvnwjvvgvvvZBpsgnjsBjsBZBZpBPJvvvvnvBBBBJKBpBBjvBpjBqBnjswnsswjjt",
"9ppp999ssppn92ggssspswssj:phjjZNqcNpiNhpsvvv5jwwwwn:9tspjBBvBvjjtBsjpxgvpvgcw2nnswjntBHZZpjBvvvhhvvpnBwBKBhjsvphshj9tjspwszjtjsw",
"*phu5pjvp2uj45su9t9ws9wjj:>vjjjNZNJZqZwNqwyppspps;w2psjBjsjsjpwwwswvppvpiipwp5sgnssBzBFBjpwjpNvpvvswjBhsjppvjppphpp5jtjsp9s25wpw",
"*p5552jBs55n58p89psp9w9vnw2vjjvcNiNZicjjvp5p5jpsj5599whBvsjpwpwtws9jgujpi>ps95gssptjgnZBBwwBiBBpnhwpsvjvzpvvjpvhppj9zjwsswzj5wjj",
"*hci52pjp28vw9su5sssspsjNp:jwtjwvvNvvchvgBx><ppwjw5>j>pMpBwspw9tjBwnjBpppsjnp>nBssjtwBBZj2wvjvvpvvwwsmwwNMpgvNpjvpv2pjsspwwjv5hh",
"2phppwsng,2B9>tsu29vu9pnj22jwwzpNNvNvNhjivZp5jvgsjpps0qttjnp5h9jtjsjgijh2,sjs5znBjjjzBBBj9wnspvsjmjp8jwpzjpgjjppqpj5jzjsvnn9phpv",
"o5pjcvppw-,s5-899::5zswcM92ppswwvvjhpNqjpiip>ss8w5w2vtwjj8jvpppwtjsBhjBji>wBs*gnwj9wjjBHnw8h5wjjjtphtB99zjvMcwpjv2h:jsupspjw5qpp",
"**o*$*2*+.@5w*#$$2$**555w9oww98:qqjiivpq5<>5#25pw5w;2222w98*25ysww9ww5ww5::pv22p99:*2:2ww52ww*99ww;-2tw2*p*p>52*5<p9592@****o**2",
"wvvq5yvBjwtnjnjj4usu9:9vjj,vKpjvNcZcvZZNZPjjjnBMBjvnvgj,BBzpjjcvMvNnujjngsspvsBHjjzjsnBvvZBmjsvjjjntszjDjjsBcMsjsjjBMzs4pvFvw9pv",
"jwp53pBnwujBnssw44pwpspjjjwvHjsvBmNNpjijpZpwsjBmjwpBBwjpjzjpjvvnmwhnw8jj9vmp9s9Hs8wtjMBKvjjBvwwstsjztwttMjwBjstsppwtjsu:9njpw92s",
"wpvu3phswppssjsj5;529wvBshphvujnjZZvjpjijvpjwwmgBjpjjtgwpBjjjjsvznvngnwp2psvssjsw92tgswjmp2vjwjnjt,jjw0tzw:jwttpwpw5szhO5shwpj2p",
"vppi*pwp:55sjvp945u9wpjvtpxwg8wsjBBhwwjjpNwqwwgNvhvNBht2sgguwjsjBjgs9sjs5pshsuss5t9wzBBvwvvvNwsnzjsjsz8tjj5jjjtjw5sjsjz*w5pp5hp5",
"sjvp$5pn9sp,98p854psuwjvt5vsspsjpvBvwphiwjcvcBjjBivNjihwNgtwpwsBBjjzwwwv95hpwssMw:vtjnnBw9pvvwpnztttjtptts2shstg0>jjnts28wgipppp",
"vvv95p9zjssnsuss5:5ps5pBtw9vm,jjwvBjwpjBvNwvBJJjBpijjjB2BBhsjwpzBBvzwngvp8pnjnnnj:swjjzvjpwpvp8sjzssgjwtjp2pwu5wtwjBnBs2psv95jxp",
"wpp4o4:wwwwjgptp>*:5a5:ww9u>j8sjwwwwpjBBjZhicZNNsjpvw<j2wBsqtp,jzjsz0wtvvvspp2sBj*2wwsBjwnjvs8,wst929watzw2ppi2>9ppnsswO2ws55ppw",
"4*$u;2*:+5wt9>::2**+***22*28pp2295w>i>wqwgp25ww05*<22#qq0w5->2:wwwwgw,:**;*52:9>w:229jsw5992wu2:>92;2*-+,u;52;*.*o##95w*o:55;$$:",
"sZkcpsts8wzMnzss95uswtszjpsvBBzsZKNhjhNhBUKZZJBBBvpzwpvgHKBjjjjnFzzzzFFj2jsvnsnnZzuvwjFBsjnjslnsMwujrslutDhpNpw2wjsjjFz9tjv9svpp",
"9p42,9js2wszszgw22:9w2wjs9sptwHpBjpvjwBBBvvxcPjNBBvZjwjgtjhwwwjnBMstjzHn5vnppssjsnejstjnptjjzslrgw-8,rrsjpjppp259hsvtns:9tv:sppp",
"sw9;5psj9ssrzwzss989022jt9svstssjs5ww5jjNBBccBBBjBpjv5wcjsj5jwwBBzzBzgBn:jvZs9zvjsjjprBFjwssjjsjs99288l8twvpyp5pwppj9js55ps:4upv",
"jnj598sz2jzzzs9sspw9889jzs9sjswpBvjhw5BjNMcjcBqvBjvxhpwwjvvwjpgtBzzjztjs5nsjj9tnjsjvswsswjnvsj9wv5:8rwrw995p5p;ypppss9w559p5p55w",
"wvj5ptBg8jzzzj,tp9psp8sjspjvszspnhpvjpNwvBjjqN5wKNpxqpzBjvjwwsjBjhBzggzt#jjjgwgzjswjssnw>snjplvssw*wssse9,9v95;*p2astsw959s5pu9w",
"Bvspwwhw2zzztsz9p9ps92thtu9wjsjwngjph5pBBJNvjBhjNNvvwwjjBjswjpjzMztMztgg8pjgw,wtwujmw9nz,sjuvssgs,5989tsj999;5225y8sszs4a99:ppps",
"wjw5a5js-wtzst9t959p2:wtz9pwsjwpcwws5NcjjjNNcZwvMNjcp5jjsvjwtpjgzMzzzlgp:8p2jpujp>at92wzs2Bpw,25b:459:8ts8sq554*9pp9w25959a42559",
":2*;22-99889:8>:+;;2p*###-O2;52;wj5i<*j0piqq5jp>42<w5o2wwwwsw:0wwggp,>wj222>55w25;222>9;9522:9+-95O-*++2:+:2O:5$***5>;2;4$u2***;",
"jjvi5pwjKBsDzgzgsp8jvjss9:tjjnHhKBBBPycKBBZNcZKvBBjicppgBBsBBnjjIFMDMMggzzKBjvjMcvgstMjjwnZjwMzrsj9sz:9zzwsswwsjup5sjzjvpsbmvbCu",
"gvBw5t5wgzltwrtrws9pwwttt-9tjjBjBFBBZphBNNjvNBgvBBwcZcNMjBwjhwBtgBlggegt0wvvjvjgg9gewznnw9jvsjw9ja4898O8j:pz68ps9w9wgm9pv95sp9v2",
"sjsp5t9ttgtw,jtt89s8ttsj9-w9tjggznBhvyqBZBNijNBgBN5BZccvzjjjnMBBBFFzfeggtwgjqsjzgggpttzn59Bpwj8wm9996-:s9:-2899wss:wt9s99s:8>yp9",
"sBw95wtttttgp8tsp2tsu8sj95vp,gjjmhBBZp5jNJBggZBvNZ5hNppjMjjBjwzjjMzll0twjppi2ptBpwssntsnw2Bjsspss999r==6992;-w959p52ts58599sssg;",
"8sB9t9sgstztttzsw,9pspwjw*pppzs0FvjvNpphvBNBggvZBBqqhqihBjgjBjvpjgBzl0tjsjviwqwjpwjsvz9j22zp8uss9::9f=+s9sr9:9>s:s:wasjss8,9spp:",
"vg5,jt>j8zttttzspssttshs5ppsjszwHFvppqphjBNNgvvNZBpNNhhNjntBjjBwjMtztgttjjvjwjjnHvjssztt:#mjst9es996,66rar,999s58p:sz8ujs9sw9ps2",
"s555ggstwgwswtpppw9jt>8s5*p5gs89shMhvy5jvNNjhNgvvjqhjpijBMwpjjn9wjjjglsjtwww5wjsjZBpwssz9O8:2,wa95y:9::s:6:5>4<p9s:9sj92999:vvj2",
">:<+*+>t-p,t>-8*;:-2:->2g*32;u2:uw2q53w5qjwqhijppN1ii<<#www9w#ttw220>282w>pj52552;52::-9s:::;@O2;o++O6O$+$+$:4X.X5;2::42:22;-2v2",
"jpvpvvpmzMzzzBMsppjzzwjjjvpvjjBvHKKBpvZvzvKZLJJZKKZPPZvvjBpBBBzBBBBtmwttzBBZBvvjBjBzjcFpszzvs9sesr8rrtzrs4449bb59uasjsrzzvpsswBm",
"mpv;pjsztMtlMBzs2sjszjgjvpvBstj9BBBnjjjnBBNBBBJZjBcKCZ5vBBcijvgjjwj9tz9w5jjcNpjp5sjsseznw9zz9998996r8,69k645:4s2999z8z9r:w9tvjvj",
"gsj5pvsBzgglgwtw;pswwwjgjgpv9pBsjnjsgjtwBBjNNJJcjp2vvh2pBpgwwjjjjgjt,stwt9pNhwvj5snesj9uspsn9::wr4:8898452;9u455:99sst:99uppjpjv",
"pgpphssBMztgMssp55tp,sjjhjjvwtjjjBnw,wMpjMBJBBgvvgppNj5jBMwtjjsjjtDjttstwj5Nhwpw2sjs2zs9p:ws9699ru99;89as:*:us95$8se9t-9j9w9Bpsj",
"pvjwBctjzzzzlw,p5psjpwwBjpjBgwBpzBBjjwjjBghBjjjijvjhccipBBjsjjvjzzz0t8ww9p2pZwjw9pssu8s9s59s92:9s:%:9995su;5:99p4:uz:r:8u95pjjpj",
"spj5jBBMzSgstjsw59wssjphBtjjBwjBsjj9jnjjBNjjjjjjjvwvhvpjBZjvBmvjpzwttwswwgpwppvj5ssmsss85p9zs99:su999a95z8u599p45sus8t99w599jjwn",
"jsn5>uhzjl,8zjjwppwp9pjpqw5twjjwvnjw:wwpzjBBNjBnhsiBjv5vlBphw4pBtps,gpw9wpwgw9pt;sjspss:5599;8u2zs9s8899a$:up2up49uk9s,8s99w9wps",
"5#ps5<88r8es-28p552w5w5q55*5twsw9ssw:*>#wqwwpwpppp22pp5>wj5wqq29w8p8>+2*22252:9p+=99;294;o+:9::++O+:%-;:9:.o:o+;o+o::9t+::*:9522",
"BnvngvNnHfzzBtzBsbvmjmvvhvsjBBBBBnDzjNsBKBnjKKKNZHnvZcjBjZjBBZBgjnggnjnpBBjmswznBgvn5vljbppzznls5:s9szksjsm:99uppsssttsz9swsnZjn",
"jjnjBsMwzftzjz9pbuBZ8pwvwpspjnBjhjBt,cjjBBnhvjmMvBBZZjjjNBwpiisgsjtutju8wvjssvjsgFMsssu94pss8zttsa999z9s6894b99uzstsnrst99+wuzvj",
"swjjgsjtjttttjspspsj9sswwjp5tjjjjsnjshjjgzBjjBvjvKHBvjtjBBwwwjpsjsw8tvg2wtws5w9tpgmpwMjs55ww2rtsr9us89s9s=:2u:9py4:ssszm9s99sjpj",
"jjpBvsjstrtsttpp8psn2qjwwjj9tBhBjsjgtgjjgnnhvBnBsBZBjt0jjBwwpppgswwwtpg9sswspwssssjs9nzw2pjz9stss5w,rszsr:6:s:2s9s5wzstsw5:999pw",
"pjjsvpzjnrszzzpuuujvpjpjw20z8HvgjwjttztjzBFnBBBjvzBZvjpgtBpqwcwssggsjth289wpwt9ssvMr5jnsww5zjstt>9t899w8s85699552599pt999528sjws",
"vjjwpsBpzszszsspcujjppjpvw8ttzjwwjzztzstjvjnFjNKBBnZBttgpju8wpgpgsspjwswst9w98wtjjns2ptp5pestDsp92p,8sssss:5s929:::uajsws52psjss",
"jvpjvpjws,s9w58545s52pp25h>wtBww8ps9tjptsnsnKvhBBBjpjw8zsN2:i*pvvjg5hws+ws29s99zjjne:ww9225t2sw88eu:899zt:999995:w22229jss*9hsps",
"555*>;sa8:-:22;4<*sj;59>o:.<+92qp9,:-5;2wwswvnjwjjqww9+-;wp22>*2:2;::;w>$2*#+#-:8*5w-*2;+*+;:2+*8*:+@-:O6;o+69;2 $*42:+:+:;:9>:4",
"pvZvphBMtnjptzs8pbnvssBgpBiwphMBMnBzwjswnBKjFHKnBjvBKBpcpjnvvv2gNjwjggjsszpjjpr8jnsnjtjswvp8vnsusm8ssszrks49mas8e499ZnzsnpssFBsh",
"BjvZZhjtt9p,szs9u9vwstjv*piwwshhpnzzrwwzjBFjszsvnpwvhvssssj9ps;uMjt8zt99,sp5vssjnszjwsts$pssgg,-rzs968r68a9sa9p:s9999zjjjpsjBZp9",
"vBpjhhjtzre28ss8:;sg8tjs5sppws2pvqjj,9wzBjjjjHvszp9jgp9ppss59j:9ws5ttwttpsv85ppsvsstwjts5u9pws9,2ju895sa:r;48snt92:zsszmjvjvvBwp",
"hhZcvsz9tsrp:sss5:stsps82vpppjvjBnjsswwwnBBsszv2p9pjZv5shsn9pj,jpj99sg9w8jwpp9vsjnjtwtg8;pp9psts8sj5:98r8s92sssss5:usjnBBvjHvZ2h",
"jcvvxpBst965w9p9u:8zuws8;vyppNNvBczjpppjwnvnwjjsjj5Bvvspvcnp8v59p9pwtgwtwps4s2gmpwssssgs2upwwpspwzs9;8s664:9::ssw55stFmgBvjvjn5i",
"jBvcZsjls9w;wsw9299susgp$ppcpjjhnMwvw28vjBjjjsswFs5zvppspsw9sc959wwszstpwsB9usspswsjwwzs5swpvjs9sw:999zs92w:s98pm2:vszKBBvvBvB22",
"ipjqi5www4a:*>9p2999+2p8*yyvxwpppBsh2u55jsjsjBnwj92anp8n5eg99v2uBp9pwzstpw95>2wspwpj9,js2ap9pwn5psw958stt994*892v5:pnzBFiwjvBv5p",
"***3*;25:O29:*.-o22:2o+u*$*$29o<>w99w22;22522299w9:*23*2:*2;-5p;;*.*#O;@*+2::++w2::2922w*:;#:2252w945+5+*;@;*:,**:$:O22p2+325p<o",
"wvpppvvvmw9jsj55e9mss9vjs5xpiPiivhvBnswspjnMBvBnBssvm55vnj95psmmhsasnrsje5sjjjzsjjjntBBnsstpwHspszmcaksnr9lwsssmsnsss,sNZscZKZZj",
"Bc5ppvpjwjsw58v299us:5w9w5yp*vvvBBnzgBwhppnjjBHBzw2sBp:svBsvgwsjvn;5nzttss5w9w92t0tFjjnjw>ss+jjvw9z55zrst5m99s89ssu,s>wKZnjNZZNj",
"BZ5pqpjpw29w5pj;8wsswusswppv5jxpBjZztz8vswjjpvwsmssvs52s2ppuwpwvss;wDzjwwstjp59:ttzjztjsj8w9<ss9swt94sssr$99srs985s2s8wKnjjvjcNp",
"vZ5pvpBBsw952>j:-2snw5snnpvg2wvhZzhnMgpMtwspswpwwjjsg5;sp99pp959Bm;5tjnpw92ssww-wetjwjvj5scw:szp9ssw4t9st998zspss2s8ts9MBppNNjjp",
"pw*xppjjwpsw52w:25sMwuwtjjvvpvypZvjzszpgjwBBssjvkwsjj9;pjjspps5pBB55skms59upsps-tsjMwtnKjpss2sww99s99jsnr9w:5s95999sstpnMjjjvvvv",
"vc*5vwjpsppspwj+u:wz9wvsswpp2vpcFmzBgzgMjjzBBspssawjv95jpNvpppppws49ejcn999s9ps*wjBFBjssjppp9cw9p9z95s9zw:9s9wwj228sj9wvhwpjgBgv",
"vv55iqphw2pw2wc#>>8Mw5pgj>:p2ph2jvszwzjghwBKBswswwspj5o5phZj2555pu$59wnu595p5up2wwjjwBsww48u25w:5s9s49wjs>9s9spjv2usv:9npw2pjhpi",
"2>2**#52q;254:9:+-22:;9sp>255*o*25-222+2w25ww:59w:59w5;29*yy5;@*9:$O8*2:$Oo4$$p*##:2#52+::22;25@o52:O:w9s$;O@O:95::@:9O55:>#wh>2",
"wjsvwjjnsppjvjstwwwnjsjjnsspNjvpvHBBznvvZswjjjsvDnpNngpZZwnZNZjBhs85gm;swrsvsuzrwjpjnjz9sjjtskmu:9zsstjFssrrs9sss9gztsjjZpjjvZjB",
"Bp2ttjpwswpswjjtw9ww9jsjgw,ujwjp2zjBjnjpwBvBjsnvjssns95sMppZNjsNnj5s5s2ss9sp99rtutw9jnlsr998:ss9O9s99psns99z9,sls,tjswjjvwpKBjpv",
"iwwjwsjjsw9w59jjwpjj2wszvw:sjswp2nhzjvvvsjnvz59jnssjs9psg2qxNjwjpp2pps2s9::992:9p5vswjnwsr-86899O:w9:psjj99z8:tjt2wztw9vBwBpZvpp",
"pwwwpjwjjh9pw8tjpjjwjpwzjw82q9jp,BBnjnjhpwsvztvsmlswp5wsm5wqqcpj892:ps:u9::99:,9w5z89vts9s9r8ss82ps9*snsj9wk9O>jt:9swj9jZphBNBp5",
"jpwjvvpBnp9p8sgp2pj9vpwnnpw8pqxp5jjvsvvpsjwBsswsjsszp5w9ppjh5pppsu9psn2ww-:2s--bb9jupjsst9899tl9$:ps94jnjsw99--sj,twwwjpNwhNJBpw",
"wppNjBwwj59swwggppn5sp9BNvusv5ppsKjjpvpppwjZjpzjsr9svspwn2phuppNp859pj5995:ss82pppj9ssspjstw9tsu;pzs9w5nwsjz:-,,u-tstvjpZqjjNBww",
"pp5jvZsjsswsppjtpjj9w4wvBnswpp2q*zju2hp*p5pBj2ssnw99ppup8:<vpvpNZaqvjv>9:pu:994999w:wws59wttwsvb*9sv9spjmwss,@25c-2929wjZwijjBvi",
"wpi5:hh82*9:;2,>89ww2*2tp2p8*3pv922>#5**2w:9ju5992:95>*5pq***<**2* ;8u55$.$*@X@;**82*:#>59999:9u3*:4*:w5>w:69O@;22:*:9w*ww2qqj55",
"vZZKBZMBzw9sjjzt98zvwbvnBBsvjjvhBHHnpvgpvvvnFBBBtpsvMwvpmnsuBcvij:;:9sckms5zs94zsjsvsFjsjzzzHnvMppnp:psBzzzstw>zs5BBsBBjBZhvmBhh",
"BvwjgNsgwswswszttwtsvpsw9vp9u5wpsunj+sppvpsjtj9kt5pvjpss99w5vijju929stpe94$99uu99jsswsn9swtpsjvspgBs*p9jjsns999vj:jp9wj8shMjBjvv",
"jsvjwzgt292wpsgps8:995u5859>82ppBBjj2sp;9psBvt8e,9svw94999spji55s9@9tps2:p455uusswpssww5jjs9stjngpvs<vjwjjss9:5pp5pw2wj8,jvjvw5s",
"zvijsgszpsw9wst,st959up9pp5jp*w8wssp:pwp9wphjztt8:sBns9p>55cNqqs99:9s,vs5u$uu;p9pp9wsjn:pjss9zjuvvBv;jjmpjsjswwnw#9t8sttpwjwvvw5",
"5jssgwgztspj2wj8959s55w99s55t>wswhu52vj5:jKBjtwtt8tjB9ppt55sjh2s2499s99b54o44:5usuwpnpm5pjjswrsjpbjj:jmB8pt99p5sp*p5,jj0twwsBwww",
"gsjssztz9w299sztw95wpyj9u9s9w9ws89Np5hj55wBBzztt828sj99ss5vjvp*ss99s8sspux4999;9spwpjnu5s9,9jszuyvBj2hBmNsgup9wwtOwtwaz9,twjZwww",
"vwswtttt9t49smss9pp925s5jw5vsw5sppw82p;p559hp00t:#psjwwpgu2pZhppsp9spus9uu$p;55pnnjppjaos2pw9swsu9jp#psgwjs8w;ws5#wt29wpwsswjw:p",
">:298888:92::9952$*::*922>o*5.O*2***o5oo<o25w:=25.#2*o*:***op2*;:@#O5+*o.:o*5$$*:*+***w252+::$O*@o2j@O>585w:;<:9pO*222>;:28p,s5o",
"jjjstzzzrss89swpzp59wsjznvs>jwpp8ssswjv2:zpgZnsgzs4m52sjcjKjZBshn55zssts259bBbwzsnshvvzvZHn9nFnvssnvjsFujpznsp9BHnpjpwBtwsjBFjjv",
"Bw8zttkSs9,s;t98spss,rjsjjw:pw99ppupwsp939vgsts9ww9jw;ww9pjvBv9pn5:tssss99:p25#psjsjnjspsjs:nznsswsw9vFz9vjjspsjpwpMpwjwtzszzt9t",
"fw2rzwttswst5s99s9wss8sts82+2295wsw89pp5*upcZn9sv99w5<hnwwpwsp52n9*9s9tss92t95;sphhvpjppBsw;szzs9sns5ulswpnjsp5vvpwpw9s2:wtslre9",
"zt9,ttgzjwws9s29j99ts9wrwj8:p9v98jp55j5p4pssvvgss92z9;wmpppwhpswvs2azss9-,:su>@wBBsvwjw5vss2tsv95psv95js9jntppwspwpsw9js99znss9s",
"gs8z8szgtzs9pw,>sspvswsz9sw*j5svsp55sshp5psvssssw28n9*ww5wnwgpwps48urwj982:>8w*>nv9sspw9wss;sszp59jwpvns5jjsjvBjp>spp5vss8szzstw",
"tt8zs,zMwjzwps9swpuswpwsmjs*wwphsj95sspp*vgwjpppww2jv5wwp9chBscsj29zs9ssus:u2p:9nzwwjwwsvz5+tvuspsBB2pBs>sss9xnjv55nppgsssszn,rw",
"s,,zlr,zj999wj29was::5wwsjw*vpw5wvzwwhwy*5ps9595#88Bw5ssw5wp9qpnj529992959pn52@*w9pgxs29pwp;2994u5jnxjnv5s9jp3w5jp5swwt99p9zj8ts",
"tt-2,29;*2:O#p>@2;$*#+:2:2j5**:2***O*2;4ooo;#*+;*+2s9#::;+<p9;-@55:,22:5***5:59*5*o5;**O*:s:25:@;45w*pwp599;4*9*;*55w*w>;+,,u::#",
"zFjzStsz9vFBwznwsn5sjsszKnvcBZBwNKnjwssgssjvpjsvntwvjpspppvBNpsjsmnzmsjmBZppgscZjH9svjnvvHzpvkvsvpNKZvsvMmKj5ujvnppvMnjngpzBFFvz",
"tltfzwttwnsznsj9un5sswzshgppcZn5jnzjszs5psjnsju9jssnpssvj2vBMssj92sjl8u8uhvj8uwgnB9wnjssnjzjsss:9gspjNswwjBs5pspss9ssnnj40rk,vss",
"ttrtz8wzwzvssjssmw;8j9ssjjspgpB2snjwjsw5cps95ss5spsjpuvjp5jjjp9sjssgz,4228pzw8jjZK5pjppppBsp9ez:29np9sj8ppjp*5ppp9,sw9sj4:9zs9ss",
"Szrzz98njsssszvpan22s9wjssppj5B5jztwjnp3sjvu;spspp9vzhjvppphmvp,pwrzz:5jupjNpp8jBK5jBhpgjpBs9995u2ww59s9pszs*9pwsspsj9pn92ttzss8",
"zSjzz92znjwswzZsjnawwspswjwpBjv>wpt8scsp55ss2vu94pp9qpvsq*vspqyp9prsj82jwpvgw5wwnZ:szBBcZBjBw5p*gp9pu99wpjss+:jw5psshswn42zs6sjj",
"ttjtj92MznjtutzvnnwzssgtsjwwpsZssp82ss5ypvpp:pspwwpppvvvw5jKjwpvwpsjh9ppvqpww2huBK2sjBcKjvpsg9p:9gss>59wpsst-wnhspsjppsn98szsusv",
"ztszj9#twsjwsnzvlc2w9ts,s99w5ss9jss25gp53psp2s955wwnhvvsw2wpzjpp9vsjz,spqxwww5wwsBw5tjhxxjjwgww59ww5w9sw5vjw+5jspswwp2wm22s9w2:p",
"2w:8sw5:+-#2*::*:52:2;>::w:52;j:52:o*55**>2p*2;$o++w**29w2ww*:2p;250pw;5;***5#>2qhw52:;55;p59ws2;25*-;55O2>s*5u5**<:2:;,5o9>+;-o",
"tBjzZBnFjzwjjpspwvnsnspjttjjjsBzjnn5ww2pyvZNjpvc5ppZIvKnjjjZjjvvcpnnvsmsvvBvpmvNKBBBBBpvKvBBBjjsphFj:jvwpZnsbpBvsspsjzssjwzzjtvj",
"zmnzttjttwsjBmnvjjspsj:szjtwwwznnBj;5p59ppjnvvpz5mvvxZNjpwjKpwsppwsss5bpp5jnjhBBKBnjBZ5vZBBnjnsvswv9:;pppjv935js5ppjsjsp9ttz8usw",
"szznjnpzs9w9wsw59ws99j9:w9wwwjtjwjh2jjswsvjwpsuu4upZBvNpjsvmt2sjBwggusp2u42jhpBjBNjjjv5pvnnnjsssvsj5p55999jp55vs495ssptsw99t8:s9",
"zs9jpnBtz9wgsts9wwjpsjtw9wsjjpjjnjn;shw9pvMvpspw:jsvvBMjvjvKs5Bpjwwgpwp:225jBpjjBczpnZ5jBnBHnjjw9nv25uvbpwp9:yss5ww5pssww98s:298",
"jnlNswjt2w2wwzjwjssw2s9wNscpjvjjnvn5qBpppvFNcsgs-ggghhppvvjMssg2jsjjt9w9t-9jvpjsBjjjjBphcgvnHBsBppj25p5<9hsj52pp5jpsw9w999wk85ss",
"wtgKnvjjzp9swwstsjss2s29pvcjnBBBpws59jvwvvFgvvcw-gpcpjvjvZnNw9pypzzztpp,922wp5jwjnjjjvqBgBsnjBZvjvj2y5c5w5w99wvs2psjstzwsszz:599",
"tsushpj:jwswwwjwswjp9w295wicBpjspjj:psxw5vFvsNpj5jppphqvvZgp2*wsptns29p9w29sj9pvjhjshB5phsjBBvjjpNZpivyphBj29pjp:p9tw2992,2e22pj",
":#8p8O99:w::5:5525:9:5w5*5*5595922j5#:<;;<ppp>pw<>#2;p22259w5o-;2:#22:5:5p22w5,>pps>pBvwq2:wj2wpw>i5o33*<9w:*25w492:22:822ww2;o-",
"stMntzjnsjBzswsMNvvBjnHnvByyZZBBjBKjjjgpvvFBNvpgutgzsBcBcBBcsjsvsnnsjvvjsjBzBpnjsvnKKZZhvFjjBBHPZBZj;pp3pgvvtsBsnjszjnsjvzknsjsj",
"tsjnj9jjzsnstpspjvsgppsvvvy5pcgvjMttwjvppsKphvss0tzj;BjBvvsNpjujssvZswsg8tjzZpvnjjBMZNhhpHwmBBBBvjjjp5jiwphtwwj5pswtwztzume2wwjs",
"twsjt8sjzsnsj,swjpwwvvppuspx5svmNcs95mv5vpMjjvj,ttpj2hjZvpwsw2wwjpssmvj,89swMtttjpjjBNcvpB8wwnjswjvs5qp5pjjw9tj58psz,sjsptsw5wsj",
"ttBsptjjwpssjwstwsvs5ns9uj9p5nvvBBgw8gp5hhNwwjzg8wppwjpvcggsw8tfj8sjphs>wtwpn5hjjpjNZKvvjmpjajjvBvpjqyw3wpjw89jp8jsz289wsszg92tj",
"twzBjpjvtjttjwrt,tpBpvvpsv:pwvZjBjj>2sp5vpBjjwjjupjsqj5pwwnM5t2wtsjszsjw-ww:s:wFjpjvcJjiwNtspsswvjvswwp5pwvptsjspsjB9sjnjzzs9wtB",
"jjsvwpsvjjnjzw9stt9pp:p5uj2wpgvvNBsswjB5jvjjptwswppgwccBsppgsgttw9jwsjtwwjswj8jzZjBMvMcg9swjcnnsjjjjsMvwnjsssjnpp9pmtjjjjtztttsj",
"ptZh9wjvs9sjz8zet8ws9p5p5s:wpvjjjjxswpp55jww5wwswp2pwxgjpppshhsBn>jzp,nwwjjqt8wjnj2hvhNvjBw9vwqpjvvp2pp*pppppvjssjpj9sswnzwtt5sB",
"n2jvw5p5w92:t828-::54u5522*o*qwp8p2<2ssqpqt9<ww52225*222>2w>;2;*s5;:2@2w5q5592::2522pq>5;sgp5w2y>5pq::5*525:*p955wwjwtw29s22;w;w",
"BmgKKtjBjHnvssBka>j59ps5pnssvMpvNZBnvZnvvBBjvjBjjwBBsjpg9cmmsvgpBBmvj2sBcBZnsjnjnjvBvKvvvBBHcBggnvpppnvjBBvpp9HpwzwBmFBz,BBBvvjZ",
"BvswB55jjjsjs9uzs9ps9ssgp2wxxNw5jMvijFvvppn5vvBvjs8sjmvs5jjssvssmgwmw2vBjhvjspBsspwspjhpvBzBBZppvBBp99jsppv5qs9jwjwpzjzj8swwsnwB",
"pjmtw5nsjwvvspssj55s559jppphjvs5pvNppvjsqiB25pBBw0twwjsv9w8jpwpsmzpsw2phwjvqpwjzvp9wsjjxpvnBvvwwsiw5w-wpjww2wwjswjttMjjwujjsq9pj",
"jw5js*jnnnwsspsep9uvsu5qpwvhqvjwpNNvvBzjejjwvqjjj0wwwpue9jp8>99szvjjpqjBwjBjv9tnB9wwvsjvjBBcjBpwwpj985wsBsh25pjjwswjtjjt>tt9wjsv",
"vz9hw5jwwjjshpspn9uvsvpghjpiwZjppjcvjNBgujv2pNjjjwwwggvj:jnst9wwjs5jv5jvgqjjwtw9nj:psjppjpBZcZhqviww59wvjjj5yppjst2twtgjwsjtwszB",
"np2ww*BnjvMnjpjjs:#wppjjcchipjivihjvjNMjjwn2hhBa99ppsvjv:jzs9,9sjzsjjphBwhjjzsjzjnvswBvppsjZZBjvBjwj9wwpZBB5wjgptzwjjswt:tt8wtwt",
"jsjsp*wjwsjjv9999>:p5pjjcgp<*vwqcjivhNtwj0j9ippww55555is29B9wtrsssssp5hhjqjp9swzBwvnvBvj5wpsZKqpvj55wpp5sjvw*2sstwwwgjgt2gt8tt2j",
"95:2w;:::o2o*>*559-:9++**i52*p5#5w5<52q2w>pp*2522**;w5>s2-2,O-#5p:29p4p*<2;>;O2;wp9swww55ww5<BiX5w2*#:>>;#pp59pw:22w822t:98--*:5",
"sjspKssMswnBjwnngspwz,wjpvccjgNgvJp5jBZjpvvvZvZpvvvpmBsBBj9g29wsFntvz8vKxcBhtznngBBgmvZBjBmBvKYppZjjsjhvvgghvBBvjvjvMBzBvjz88j9p",
"BjNpggsg5-nnHjjvsws9pw5jiqicpqvpNBv5wpBjvppvjps5wppwwp5sjsjj2wwsBg9gs2vvppvjhjnjgpsvnBjvwjjvvvvvBM8svuMppwpNphMwjjptBBtjjssw:vss",
"spn29w9t:+jznjjw5gssp9vmpppcvijpvZ5pppwsvppvppp2w9:59wpwhvzw2wpwBv8uj2,g23jjwwnjtppvnjpjpjvjBig5vZ22p9hvcq5hhvBppjjsjMttstswospp",
"u2pw2p5t5+wnjsvspswsp;pj55iiyBpivv<55wjpwppppjB9hv9pwwphwjnwww5pgwvssjqpp2vtwjsBnpwsvpsjphhjNvvpvB2hswwnjjijhpp9wwhtjzjttstj*5vw",
"shsp2ups5-qswsjgw9ggg55mjwpc2iJviCipppjwp9hcpwc>w>:ps25wppjj*vppNjppwpBh+2hv9tjsgz95s99ppvpBNvNgjZ2pswsBpjw2swzwhpvjtBgjstws:2hv",
"svpw4*p8->9jp9wwsspmv95jwjjpjvBxvj555qsp8*5pppg9suO5s5ppwvzv2pppjvhpw5pBw5ssjgwnswsswssvhjjvZNZvBKpjBjNKKBpjpjj5w5wjwsjsjtsp*wpj",
"95y3pu:s9+$snwwzwswzc9;055siicipvv552ww59*935pu22999w95j55ng9p5pwu9qqpppwph9wzzBgp9wj9wjpsvjZJxqjC5jvjhBZZhwwjv9whpjsjt25www*95u",
"552***29;oo@*O+2+#O2p4<55#**&jq<555*o5w*5o**$22>+ *:**:94y2p#5558252<*qy5<2*22w22+w99s:p95pqiqp*ij5>5wqqqwpww<p55*<2w292+:2w*:*#"
};
