/* XPM */
static char *_310b77c3fb44afa9ea9fe1addd4af9fqyJWChlNXiIcQ6WZ[] = {
/* columns rows colors chars-per-pixel */
"64 64 8 1 ",
"  c #231F31",
". c #38395D",
"X c #991111",
"o c #C32808",
"O c #C58918",
"+ c #FFBF47",
"@ c #5F6783",
"# c #ACAEA1",
/* pixels */
"      .O ..      XooO+++Oo  .@@       .O ..      XooO+++Oo  .@@ ",
"      .O ..   XooooOOO++Oo .@.        .O ..   XooooOOO++Oo .@.  ",
"       o .   oooo###@..o+O...          o .   oooo###@..o+O...   ",
"       o .  Xo@@###@. ..++  ..         o .  Xo@@###@. ..++  ..  ",
"       o    o@.#@@.   ..++   .         o    o@.#@@.   ..++   .  ",
"...    o   Xo.@@.     ..O+Oo ......    o   Xo.@@.     ..O+Oo ...",
"..     oX  O .@.      . O+++Oo  ..     oX  O .@.      . O+++Oo  ",
"X      oOOOO .@       .OXooO++OOX      oOOOO .@       .OXooO++OO",
"OOX   XO+++O  .        Xo.@@@@.XOOX   XO+++O  .        Xo.@@@@.X",
"XOO+++++++OOo         Xo...  .@@XOO+++++++OOo         Xo...  .@@",
"@oOOX.@@.XOOo       . o.@     .@@oOOX.@@.XOOo       . o.@     .@",
"@XX  ..@@#@XO      ..X.@       @@XX  ..@@#@XO      ..X.@       @",
"@XX    .@###Oo    .. X@@   .   @@XX    .@###Oo    .. X@@   .   @",
".X      .@##@Oo  .. XX.@. ..   @.X      .@##@Oo  .. XX.@. ..   @",
"XX       .#@#@Ooo  XX..@@..    .XX       .#@#@Ooo  XX..@@..    .",
"o         #.@#@OooooX. @..    ..o         #.@#@OooooX. @..    ..",
"o.        #. .@@Xooo.  ..     . o.        #. .@@Xooo.  ..     . ",
"O.       @#   @@.XoX    .       O.       @#   @@.XoX    .       ",
"O..  ..@@#@    .@.o            XO..  ..@@#@    .@.o     .      X",
"OX. .    ..     ..o    .      XoOX. .    ..     ..o    ..     Xo",
"+o..      .     ..X   .@  .. XOO+o..      .     ..X   .@@@.. XOO",
"+OX..          .. X .@@.   XoOO++OX..          .. X .@@.   XoOO+",
"++OO .        ... OX ..X++oO++++++OO .        ... OX ..XoooO++++",
"++++O        ..  oOOOOOo...@ ###++++O        ..  oOOOOOo...@@@@@",
"#@+OOX          oO+++Oo@@@..    #@+OOX          oO+++Oo@@@...@##",
"###@OoX     XoO+++++OO@@        ###@OoX     XoO+++++OO@@@.    .#",
".###@XoooOOoo ..... oO..        .###@XoooOOoo ..... oO..@@     .",
".@##@@XoOo  .@##@... o.         .@##@@XoOo  .@##@... o. .@      ",
".##@@@.O+ .@##@.     o    .     .##@@@.O+ .@##@.     o    .     ",
"@#@@@.@+O.@#@.     ..o    .     @#@@@.@+O.@#@.     ..o    .     ",
"@@@. .@+o@@  ..   .. oo        .@@@. .@+o@@  ..   .. oo        .",
"      @O @.     ... oOOOo    .@.      @O @.     ... oOOOo    .@.",
"      .O ..      XooO+++Oo  .@@       .O ..      XooO+++Oo  .@@ ",
"      .O ..   XooooOOO++Oo .@.        .O ..   XooooOOO++Oo .@.  ",
"       o .   oooo###@..o+O...          o .   oooo###@..o+O...   ",
"       o .  Xo@@###@. ..++  ..         o .  Xo@@###@. ..++  ..  ",
"       o    o@.#@@.   ..++   .         o    o@.#@@.   ..++   .  ",
"...    o   Xo.@@.     ..O+Oo ......    o   Xo.@@.     ..O+Oo ...",
"..     oX  O .@.      . O+++Oo  ..     oX  O .@.      . O+++Oo  ",
"X      oOOOO .@       .OXooO++OOX      oOOOO .@       .OXooO++OO",
"OOX   XO+++O  .        Xo.@@@@.XOOX   XO+++O  .        Xo.@@@@.X",
"XOO+++++++OOo         Xo...  .@@XOO+++++++OOo         Xo...  .@@",
"@oOOX.@@.XOOo       . o.@     .@@oOOX.@@.XOOo       . o.@     .@",
"@XX  ..@@#@XO      ..X.@       @@XX  ..@@#@XO      ..X.@       @",
"@XX    .@###Oo    .. X@@   .   @@XX    .@###Oo    .. X@@   .   @",
".X      .@##@Oo  .. XX.@. ..   @.X      .@##@Oo  .. XX.@. ..   @",
"XX       .#@#@Ooo  XX..@@..    .XX       .#@#@Ooo  XX..@@..    .",
"o         #.@#@OooooX. @..    ..o         #.@#@OooooX. @..    ..",
"o.        #. .@@Xooo.  ..     . o.        #. .@@Xooo.  ..     . ",
"O.       @#   @@.XoX    .       O.       @#   @@.XoX    .       ",
"O..  ..@@#@    .@.o     .      XO..  ..@@#@    .@.o     .      X",
"OX. .    ..     ..o    ..     XoOX. .    ..     ..o    ..     Xo",
"+o..      .     ..X   .@@@.. XOO+o..      .     ..X   .@@@.. XOO",
"+OX..          .. X .@@.   XoOO++OX..          .. X .@@.   XoOO+",
"++OO .        ... OX ..XoooO++++++OO .        ... OX ..XoooO++++",
"++++O        ..  oOOOOOo...@@@@@++++O        ..  oOOOOOo...@@@@@",
"#@+OOX          oO+++Oo@@@...@###@+OOX          oO+++Oo@@@...@##",
"###@OoX     XoO+++++OO@@@.    .####@OoX     XoO+++++OO@@@.    .#",
".###@XoooOOoo ..... oO..@@     ..###@XoooOOoo ..... oO..@@     .",
".@##@@XoOo  .@##@... o. .@      .@##@@XoOo  .@##@... o. .@      ",
".##@@@.O+ .@##@.     o    .     .##@@@.O+ .@##@.     o    .     ",
"@#@@@.@+O.@#@.     ..o    .     @#@@@.@+O.@#@.     ..o    .     ",
"@@@. .@+o@@  ..   .. oo        .@@@. .@+o@@  ..   .. oo        .",
"      @O @.     ... oOOOo    .@.      @O @.     ... oOOOo    .@."
};
