/* XPM */
static char *Layer_2___Marble_Cave___Center_resized[] = {
/* columns rows colors chars-per-pixel */
"32 32 54 1 ",
"  c #A9A789",
". c #ADB090",
"X c #B3B393",
"o c #BCB897",
"O c #BBB799",
"+ c #B6B99B",
"@ c #BBBB9C",
"# c #BCBEA1",
"$ c #C1BE9D",
"% c #C1BFA1",
"& c #BFC09F",
"* c #BEC1A3",
"= c #BFC3A8",
"- c #C3C09F",
"; c #C3C4A4",
": c #C9C5A6",
"> c #CAC8A7",
", c #C5C6A9",
"< c #CAC7A9",
"1 c #C6C9AB",
"2 c #CBCBAC",
"3 c #D1CEAD",
"4 c #D4D0AF",
"5 c #CCCEB2",
"6 c #D1CFB1",
"7 c #CED0B4",
"8 c #CED0B8",
"9 c #D3D2B4",
"0 c #DAD5B5",
"q c #DCD8B7",
"w c #D5D5BA",
"e c #D9D7BA",
"r c #D6D8BE",
"t c #DBD9BB",
"y c #E0D7B5",
"u c #E1D9B7",
"i c #E2DBBB",
"p c #E9E0BF",
"a c #D4D7C0",
"s c #D6D9C0",
"d c #DCDCC3",
"f c #DCDEC9",
"g c #E2DEC2",
"h c #DEE0CB",
"j c #E4E1C4",
"k c #E9E2C2",
"l c #E3E3CB",
"z c #ECE7CB",
"x c #ECE9CE",
"c c #F0E9CD",
"v c #E3E5D1",
"b c #E9E7D1",
"n c #E6E8D3",
"m c #ECEAD4",
/* pixels */
",033w;r04i922t;5fe2wii99,q95*4i9",
";>37,9050021rr7*922e0i92+9je,20>",
"3wi9X0t6w02;q>52w53e>9;+,hl7w2q>",
"r2906s269ei47;2ss59;:ww@w9;;5tq2",
"+eg55s6g7>ii2,,22<,9dwdww,5h2ee5",
"<ecg,22wqiu0q520i9w55qqq2,r9g6w;",
"d5w8w9<%0ypqkw2tig9dd59q>>9;9ilw",
"@O@5d<569qtzui;2iw1jtq63t22%0k02",
"##fq::zw9et6r99ld292335;2da5<699",
"sfw564dw9weO@*2w72927h0e3d@;;19,",
"wdwhw0g0259gdf825;7h9jg309wrw;,,",
"r225tkqd2920j5aww51w72w335;5-O;*",
"ul52<02r4ip;7279,229727w>99q4k2o",
"$<,9*2qj>9j257;0,2>22323366:>9w*",
"99;O4r9;,2w2*,wr92,290500t3j7&wO",
"25*eqi,fe2wewwq2250422;29027572,",
"270-;e72i7;tw>q41>995557-<qe7,i;",
"qjw+72&90;39et201d72;qe4<te7999>",
";>44*@er199-8e40;tx72;eiik0@dd79",
"-@wd.,121rd>7d5,00&dd2920k92,w21",
"9r57+&*7=2pew5989w;qir;o97s19d09",
"#8h9799xt44,,w95ht52*7hegws*hq>9",
"424>22p9t2@:;b9;42+,72r729;@2920",
"199jnr79512wr9wr5r50teq11s50d2;;",
"9t2hv7,22,9d7w301*9090p,fh7ma;s9",
"95,qt14er;3jwq0w550r,0iq1*2915dr",
"411dq2&xh;95,l99ww9w2i22sr572sxq",
"kw+=22,77w2925rr,2werq5;*8#r53zk",
"2>4,&r>Xe2,iwX5820mb2tq95w#5@3qy",
"20qf2qe2e@rr< 157iw6<f3t5,5da03w",
"99r29e7&,2<l5<925;<%weg9r7#d6w5,",
"2ee;0720ff%,,l5,w2;96:g9200*,<s6"
};
