/* XPM */
static char *_bc5bae71e1442a2dadcba5d5545c6406WiQCKPhOFzjEzw7[] = {
/* columns rows colors chars-per-pixel */
"64 64 7 1 ",
"  c black",
". c #11041F",
"X c #0E1534",
"o c #20374B",
"O c #374744",
"+ c #546963",
"@ c #7A9C83",
/* pixels */
"O++@@@@@+OO++++.....XXXooOOOOoXoO++@@@@@+OO++++.....XXXooOOOOoXo",
"XoOO+@@@@@@@++O..XoOOOOOOOOooOOoXoOO+@@@@@@@++O..XoOOOOOOOOooOOo",
"XXXXoOO++@@++OX..ooOOOOOOOOOOOOOXXXXoOO++@@++OX..ooOOOOOOOOOOOOO",
"X.....XXooooXXXX.OoooOOOOOOOOOOOX.....XXooooXXXX.OoooOOOOOOOOOOO",
"XX.......XXXXoXXX+OOOOOOOOOOOOOOXX.......XXXXoXXX+OOOOOOOOOOOOOO",
"XXXoOOOOOOOoXooXX+@@+OOOO++++++OXXXoOOOOOOOoXooXX+@@+OOOO++++++O",
"oOOOOOOOOOOOoooXXo+@@@@@@@@++OoXoOOOOOOOOOOOoooXXo+@@@@@@@@++OoX",
"oOOOOOOOOOOOOo oXXO+@@@++++OoXoooOOOOOOOOOOOOo oXXO+@@@++++OoXoo",
"ooOOOOOOOOOOOXoooXXO++++OOoXOOOOooOOOOOOOOOOOXoooXXO++++OOoXOOOO",
"OOOOOOOOOOOOOXXooXXXoOOOoXXoOOOOOOOOOOOOOOOOOXXooXXXoOOOoXXoOOOO",
"OOOOOOOOO+++OXXXXXXXX....XoOOOOOOOOOOOOOO+++OXXXXXXXX....XoOOOOO",
"OOOOOO+++++OooXoOOOOOoX...O+++OOOOOOOO+++++OooXoOOOOOoX...O+++OO",
"+++++++++OoXoOOOOOOooOOo..O+@@@++++++++++OoXoOOOOOOooOOo..O+@@@+",
"@@@@++++OXXoOOOOOOOOOOOOX.XO+@@@@@@@++++OXXoOOOOOOOOOOOOX.XO+@@@",
"OOOOOOoXXXoOOOOOOOOOOOOOX..XooOOOOOOOOoXXXoOOOOOOOOOOOOOX..XooOO",
"XXX..X..XoO+OOOOOOOOOOOOX....XXXXXX..X..XoO+OOOOOOOOOOOOX....XXX",
"oXXX....O++OOOOOOOOOO++oX...oooooXXX....O++OOOOOOOOOO++oX...oooo",
"OOOoX...+++OOOOO++++++OXXoOOOOOOOOOoX...+++OOOOO++++++OXXoOOOOOO",
"OOOOOo..+@@++++++++++OXXoOOOOOOOOOOOOo..+@@++++++++++OXXoOOOOOOO",
"OOOOOOoXO+@@@@@@@++OoX..OOOOOOOOOOOOOOoXO+@@@@@@@++OoX..OOOOOOOO",
"OOOO+++XXOO++++OOoX....XO++OOOOOOOOO+++XXOO++++OOoX....XO++OOOOO",
"OOO+++OXXXXXXXXXXX....XXXO++++OOOOO+++OXXXXXXXXXXX....XXXO++++OO",
"@+++OOXoooXXXXXoOOOOOOOoXXO@@@@@@+++OOXoooXXXXXoOOOOOOOoXXO@@@@@",
"++ooXXXXoooooXoOOOOOOOOoooXO+@@@++ooXXXXoooooXoOOOOOOOOoooXO+@@@",
"oooOOOOoXXXXXXOOOOOOOOooOOOooooooooOOOOoXXXXXXOOOOOOOOooOOOooooo",
"OOoooOOOOOoXXXOOOOOOOOOOOOOOX.oOOOoooOOOOOoXXXOOOOOOOOOOOOOOX.oO",
"OOOOOoOOOOOOoXoOOOOOOOOOOOOO..OOOOOOOoOOOOOOoXoOOOOOOOOOOOOO..OO",
"OOOOOOOOOOOOOoXO+OOOOOOOOOOO..OOOOOOOOOOOOOOOoXO+OOOOOOOOOOO..OO",
"OOOOOOOOOOOOOOXo++OOOOOOOO++..OOOOOOOOOOOOOOOOXo++OOOOOOOO++..OO",
"OOOOOOOOOOOOOOoXO+@+OOOO+++O..OOOOOOOOOOOOOOOOoXO+@+OOOO+++O..OO",
"++OOOOOOOOOOO+O.XO+@@@@+++OX..o+++OOOOOOOOOOO+O.XO+@@@@+++OX..o+",
"+++++OOOOOOOO++...oO++++OoXXXXXO+++++OOOOOOOO++...oO++++OoXXXXXO",
"O++@@@@@+OO++++.....XXXooOOOOoXoO++@@@@@+OO++++.....XXXooOOOOoXo",
"XoOO+@@@@@@@++O..XoOOOOOOOOooOOoXoOO+@@@@@@@++O..XoOOOOOOOOooOOo",
"XXXXoOO++@@++OX..ooOOOOOOOOOOOOOXXXXoOO++@@++OX..ooOOOOOOOOOOOOO",
"X.....XXooooXXXX.OoooOOOOOOOOOOOX.....XXooooXXXX.OoooOOOOOOOOOOO",
"XX.......XXXXoXXX+OOOOOOOOOOOOOOXX.......XXXXoXXX+OOOOOOOOOOOOOO",
"XXXoOOOOOOOoXooXX+@@+OOOO++++++OXXXoOOOOOOOoXooXX+@@+OOOO++++++O",
"oOOOOOOOOOOOoooXXo+@@@@@@@@++OoXoOOOOOOOOOOOoooXXo+@@@@@@@@++OoX",
"oOOOOOOOOOOOOo oXXO+@@@++++OoXoooOOOOOOOOOOOOo oXXO+@@@++++OoXoo",
"ooOOOOOOOOOOOXoooXXO++++OOoXOOOOooOOOOOOOOOOOXoooXXO++++OOoXOOOO",
"OOOOOOOOOOOOOXXooXXXoOOOoXXoOOOOOOOOOOOOOOOOOXXooXXXoOOOoXXoOOOO",
"OOOOOOOOO+++OXXXXXXXX....XoOOOOOOOOOOOOOO+++OXXXXXXXX....XoOOOOO",
"OOOOOO+++++OooXoOOOOOoX...O+++OOOOOOOO+++++OooXoOOOOOoX...O+++OO",
"+++++++++OoXoOOOOOOooOOo..O+@@@++++++++++OoXoOOOOOOooOOo..O+@@@+",
"@@@@++++OXXoOOOOOOOOOOOOX.XO+@@@@@@@++++OXXoOOOOOOOOOOOOX.XO+@@@",
"OOOOOOoXXXoOOOOOOOOOOOOOX..XooOOOOOOOOoXXXoOOOOOOOOOOOOOX..XooOO",
"XXX..X..XoO+OOOOOOOOOOOOX....XXXXXX..X..XoO+OOOOOOOOOOOOX....XXX",
"oXXX....O++OOOOOOOOOO++oX...oooooXXX....O++OOOOOOOOOO++oX...oooo",
"OOOoX...+++OOOOO++++++OXXoOOOOOOOOOoX...+++OOOOO++++++OXXoOOOOOO",
"OOOOOo..+@@++++++++++OXXoOOOOOOOOOOOOo..+@@++++++++++OXXoOOOOOOO",
"OOOOOOoXO+@@@@@@@++OoX..OOOOOOOOOOOOOOoXO+@@@@@@@++OoX..OOOOOOOO",
"OOOO+++XXOO++++OOoX....XO++OOOOOOOOO+++XXOO++++OOoX....XO++OOOOO",
"OOO+++OXXXXXXXXXXX....XXXO++++OOOOO+++OXXXXXXXXXXX....XXXO++++OO",
"@+++OOXoooXXXXXoOOOOOOOoXXO@@@@@@+++OOXoooXXXXXoOOOOOOOoXXO@@@@@",
"++ooXXXXoooooXoOOOOOOOOoooXO+@@@++ooXXXXoooooXoOOOOOOOOoooXO+@@@",
"oooOOOOoXXXXXXOOOOOOOOooOOOooooooooOOOOoXXXXXXOOOOOOOOooOOOooooo",
"OOoooOOOOOoXXXOOOOOOOOOOOOOOX.oOOOoooOOOOOoXXXOOOOOOOOOOOOOOX.oO",
"OOOOOoOOOOOOoXoOOOOOOOOOOOOO..OOOOOOOoOOOOOOoXoOOOOOOOOOOOOO..OO",
"OOOOOOOOOOOOOoXO+OOOOOOOOOOO..OOOOOOOOOOOOOOOoXO+OOOOOOOOOOO..OO",
"OOOOOOOOOOOOOOXo++OOOOOOOO++..OOOOOOOOOOOOOOOOXo++OOOOOOOO++..OO",
"OOOOOOOOOOOOOOoXO+@+OOOO+++O..OOOOOOOOOOOOOOOOoXO+@+OOOO+++O..OO",
"++OOOOOOOOOOO+O.XO+@@@@+++OX..o+++OOOOOOOOOOO+O.XO+@@@@+++OX..o+",
"+++++OOOOOOOO++...oO++++OoXXXXXO+++++OOOOOOOO++...oO++++OoXXXXXO"
};
